<?xml version="1.0" encoding="utf-8"?>
<!-- Generator: Adobe Illustrator 21.0.2, SVG Export Plug-In . SVG Version: 6.00 Build 0)  -->
<svg version="1.1" id="Слой_1" xmlns="http://www.w3.org/2000/svg" xmlns:xlink="http://www.w3.org/1999/xlink" x="0px" y="0px"
	 viewBox="0 0 1894 601" style="enable-background:new 0 0 1894 601;" xml:space="preserve">
<style type="text/css">
	.st0{fill:#F4FAED;}
</style>
<path class="st0" d="M0,579C0,386,0,193,0,0c631.3,0,1262.7,0,1894,0c0,192.7,0,385.3,0,578c-13,4.7-25.8,6.1-38.5-1.3
	c-7.3-4.2-14.6-4.5-22.9-1.5c-6,2.2-13,1.9-19.6,2.3c-7.9,0.5-15.9,0.4-23.9,0.8c-4.3,0.2-8.6,1.5-12.9,1.4
	c-23.3-0.7-46.6-1.8-69.9-2.4c-13.4-0.4-27.2-2-40.3,0c-16.9,2.5-33.4,2.8-50.2,0.8c-7.7-0.9-15.1,0.3-22.6,2.8
	c-6.2,2.1-12.9,3.8-19.3,3.8c-31.3-0.3-62.6-1.2-93.9-2c-5.5-0.1-11-0.7-16.4-1.4c-18.9-2.4-37.7-3.4-56.7,0.3
	c-21.6,4.2-43.2,4-65.1,0.6c-15.9-2.5-32.1-3.7-48.2-4.1c-14.6-0.3-29.2,1.8-43.9,2.1c-10.3,0.3-20.8,0.6-30.8-1.2
	c-11.8-2.1-23.4-2.6-35.2-0.7c-27.5,4.5-54.9,4.7-82.5,0c-12.7-2.2-25.8-3.2-38.7-3c-12.7,0.2-25.8,1.4-38.1,4.4
	c-13.9,3.4-27.8,4.1-41.8,4.6c-6.9,0.3-13.9,1-20.8,1.5c-11.3,0-22.7,0-34,0c-4.1-1.3-8.7-1.8-12.1-4.1c-11.8-7.5-24.6-7.1-37.2-4.6
	c-23.9,4.7-47.7,3.7-71.6,1c-17.8-2-35.5-2-53.3,1.2c-22.1,4-44.2,4.7-66.5,0.4c-17.6-3.4-35.4-3.5-52.7,3
	c-3.8,1.4-8.2,2.1-12.2,1.9c-16.5-0.9-32.9-1.8-49.3-3.5c-23.8-2.5-47.5-3-71.3-0.8c-29.2,2.7-58.6,3.5-87.9,1
	c-36.5-3.1-72.8-2.6-109.3,0.6c-24.5,2.2-48.9,5.5-73.5-1c-10.9-2.9-22.9-1.5-34.2-3.5c-14.9-2.6-29.2-3.2-43.8,1.9
	c-5.1,1.8-11.2,1.4-16.7,0.7c-16.9-2-33.6-5.1-50.6-1.4c-9.3,2-18.4,1.7-27.4-2.5c-2.5-1.2-6-1.2-8.8-0.5c-4.3,1.2-8.2,3.4-12.3,5.2
	C24.5,587,12.1,586.9,0,579z"/>
</svg>
