<?xml version="1.0" encoding="utf-8"?>
<!-- Generator: Adobe Illustrator 21.0.2, SVG Export Plug-In . SVG Version: 6.00 Build 0)  -->
<svg version="1.1" id="_x3F__x3F__x3F__x3F__1" xmlns="http://www.w3.org/2000/svg" xmlns:xlink="http://www.w3.org/1999/xlink"
	 x="0px" y="0px" viewBox="0 0 595 288" style="enable-background:new 0 0 595 288;" xml:space="preserve">
<style type="text/css">
	.st0{fill-rule:evenodd;clip-rule:evenodd;fill:#007438;}
	.st1{fill-rule:evenodd;clip-rule:evenodd;fill:#D2E288;}
	.st2{fill-rule:evenodd;clip-rule:evenodd;fill:#FFFFFF;}
	.st3{fill-rule:evenodd;clip-rule:evenodd;}
	.st4{fill-rule:evenodd;clip-rule:evenodd;fill:none;stroke:#F58220;stroke-width:14.1732;stroke-miterlimit:22.9256;}
	.st5{fill-rule:evenodd;clip-rule:evenodd;fill:#14A253;}
</style>
<g>
	<ellipse class="st0" cx="297.5" cy="144" rx="262.6" ry="126.4"/>
	<ellipse class="st1" cx="297.5" cy="144" rx="247.9" ry="119.3"/>
	<ellipse class="st2" cx="297.5" cy="144" rx="232" ry="111.7"/>
	<g>
		<path class="st3" d="M152.2,108l10.7,1.3c0.1,3.9,0.4,9.9,0.7,18c0.3,8.1,0.5,14.1,0.6,17.9c0.1,3.8,0.2,7.7,0.3,11.6
			c0.1,3.9,0.1,8.1,0.1,12.5l1.5,0.2c1.7-6.3,3.9-12.6,6.4-18.9c2.5-6.3,5.5-12.5,8.8-18.7c3.3-6.2,6.9-11.8,10.7-17
			c3.8-5.2,7.7-9.7,11.7-13.3l12,4.9c-8,6.1-14.8,13-20.3,20.8c-5.5,7.7-10.2,16.2-14.2,25.5c-4,9.2-9.1,22.6-15.5,40.1l-10.8-1.2
			c-0.8-17.8-1.2-37.3-1.2-58.3l-1.6-0.4c-4.4,16.2-9.4,28.8-14.9,37.8c-5.5,9.1-10.7,15.2-15.6,18.4c-4.8,3.2-9.3,5.3-13.5,6.1
			l-4.6-10.3c6-1.2,11.1-3.5,15.3-7.1c4.3-3.5,8.1-8.3,11.4-14.3c3.4-6,6.4-12.7,9.3-20C142.3,136.2,146.5,124.3,152.2,108
			L152.2,108z M219.3,142.2c-6.8,2.4-12.9,5.5-18.3,9.4c-5.5,3.9-9.8,8.2-12.9,13c-3.1,4.8-4.7,9.7-4.7,14.6
			c0,8.7,4.4,13.1,13.2,13.1c4.9,0,9.7-1.6,14.5-4.9c4.8-3.3,8.8-7.7,11.8-13.1c3.1-5.5,4.6-11.2,4.6-17.2c0-2-0.2-3.9-0.5-5.5
			l-11,3c0.2,1.9,0.2,3.4,0.2,4.3c0,4.7-0.9,9-2.6,12.9c-1.7,3.9-3.9,7-6.6,9.2c-2.6,2.2-5.1,3.4-7.5,3.4c-1.4,0-2.7-0.5-3.7-1.5
			c-1.1-1-1.6-2.6-1.6-4.9c0-2.7,1.1-6,3.3-9.9c2.2-3.9,5.4-7.6,9.5-11.1c4.1-3.5,8.8-6.1,14-7.8L219.3,142.2L219.3,142.2z
			 M285.7,146.7l-1.5,7.2l-8.4,3.1c0,3.4-2,8-6.1,13.8c-4.1,5.8-9,10.8-14.6,15.1c-5.6,4.3-10.6,6.5-14.8,6.5
			c-2.9,0-5.4-1.2-7.7-3.5c-2.2-2.4-3.4-6-3.4-10.8c0-3.3,0.7-7,2-11.2c1.4-4.2,3.3-8.4,5.9-12.8c2.6-4.4,5.6-8.6,9-12.4l8.6,5.1
			c-4,4.8-7.5,9.9-10.5,15.3c-3,5.4-4.6,10.3-4.6,14.7c0,1.5,0.2,2.7,0.6,3.6c0.4,0.9,1.4,1.4,2.9,1.4c1.7,0,4.2-1.5,7.5-4.4
			c3.3-2.9,6.4-6.2,9.2-9.8c2.8-3.7,4.4-6.5,4.7-8.4c-1.5,0.5-3.6,0.7-6.4,0.7l-1.1-6.2c1.9-2,3.5-3.5,4.8-4.4
			c1.3-0.9,2.9-1.3,4.9-1.3c3.2,0,5.4,1.1,6.8,3.3L285.7,146.7L285.7,146.7z M311.5,142.2c-6.8,2.4-12.9,5.5-18.3,9.4
			c-5.5,3.9-9.8,8.2-12.9,13c-3.1,4.8-4.7,9.7-4.7,14.6c0,8.7,4.4,13.1,13.2,13.1c4.9,0,9.7-1.6,14.5-4.9c4.8-3.3,8.8-7.7,11.8-13.1
			c3.1-5.5,4.6-11.2,4.6-17.2c0-2-0.2-3.9-0.5-5.5l-11,3c0.2,1.9,0.2,3.4,0.2,4.3c0,4.7-0.9,9-2.6,12.9c-1.7,3.9-3.9,7-6.6,9.2
			c-2.6,2.2-5.1,3.4-7.5,3.4c-1.4,0-2.7-0.5-3.7-1.5c-1.1-1-1.6-2.6-1.6-4.9c0-2.7,1.1-6,3.3-9.9c2.2-3.9,5.4-7.6,9.5-11.1
			c4.1-3.5,8.8-6.1,14-7.8L311.5,142.2L311.5,142.2z M390.7,176.5l-2.9,8.3c-2.4,1.5-5.6,3.1-9.7,4.9c-4,1.8-7,2.7-8.9,2.7
			c-2.1,0-3.7-0.7-5-2.2c-1.2-1.4-1.8-3.2-1.8-5.1c0-1.3,0.4-3.1,1.4-5.4c0.9-2.3,2.8-6.1,5.7-11.5c2.9-5.4,7.6-13.7,14.1-24.9
			l8.5,4.3l-15.4,28c-1.1,2.1-1.7,3.7-1.7,4.7c0,0.9,0.6,1.4,1.7,1.4c1.1,0,2.5-0.3,4.2-1C382.4,180.1,385.7,178.7,390.7,176.5
			L390.7,176.5z M395.7,121h4.1c2.2,0,3.3,0.7,3.3,2.2c0,1.2-0.5,2.6-1.5,4.2c-1,1.7-2.3,3.1-3.8,4.2c-1.5,1.2-3.1,1.8-4.7,1.8
			c-2.2,0-3.4-0.7-3.8-2v-1.7c0.5-2.7,1.4-4.8,2.6-6.3C393.2,121.8,394.4,121,395.7,121L395.7,121z M421.4,176.5
			c-1.7,0.9-3.3,1.7-4.7,2.4c-1.4,0.7-2.7,1.3-3.7,1.8c-1,0.5-2,0.9-2.9,1.2c-0.9,0.3-1.7,0.5-2.3,0.5c-1.2,0-1.8-0.6-1.8-2
			c0-1.5,1-4.3,2.9-8.4c1.9-4.1,5.6-11.4,11-21.9c1.5-0.2,4.3-0.2,8.5-0.2c1.5,0,3.7,0.4,6.7,1.1l4.4-7.9c-2-0.5-4.7-0.7-7.9-0.7
			c-3.3,0-5.9,0-7.9,0.1c2.5-4.6,4.8-8.5,7-11.7l-8.7-3.2c-1.9,3-4.9,8.3-8.9,15.7c-3.7,0.2-6.8,0.6-9.4,1.2
			c-0.7,0.1-1.2,0.2-1.6,0.3c-0.4,0.1-1.2,0.2-2.5,0.5l-2,7.4c3.4-1.1,7.2-1.7,11.7-1.8c-3.3,6-6.6,12.4-9.7,19.3
			c-3.2,6.9-4.7,12-4.7,15.2c0,2.3,0.6,4.1,1.9,5.3c1.3,1.2,2.8,1.8,4.7,1.8c2.9,0,8.7-2.6,17.6-7.7L421.4,176.5L421.4,176.5z
			 M472.6,147.2l8.7,4.6l-10.7,20.9c-1.8,3.6-2.8,6-2.8,7.3c0,1.5,0.5,2.2,1.6,2.2c0.9,0,2.7-0.7,5.4-2c2.8-1.3,5.2-2.6,7.2-3.7
			l-2.6,8.3c-2.1,1.7-4.8,3.4-8,5.1c-3.2,1.7-5.8,2.6-7.9,2.6c-1.9,0-3.6-0.6-4.9-1.7c-1.3-1.1-1.9-2.5-1.9-4.1
			c0-0.7,0.1-1.6,0.4-2.6c0.3-1,0.6-2,1.1-3c0.4-1,0.6-1.6,0.7-1.8c0-0.1,0.1-0.3,0.3-0.5c0.2-0.3,0.3-0.6,0.4-1l-0.5-0.1
			c-0.2,0.2-0.5,0.4-0.8,0.8c-0.3,0.4-0.5,0.6-0.6,0.7c-1.1,1.4-2.9,3.1-5.4,5.1c-2.5,2.1-5.2,3.9-8.3,5.6c-3.1,1.6-5.9,2.5-8.6,2.5
			c-2.5,0-4.7-1-6.7-3.1c-2-2.1-3-5.1-3-9.2c0-3,1.1-6.5,3.3-10.4c2.2-3.9,5.1-7.8,8.7-11.5c3.6-3.7,7.4-6.8,11.5-9.1
			c4.1-2.4,7.9-3.6,11.4-3.6c4.5,0,8,1.5,10.4,4.4L472.6,147.2L472.6,147.2z M462.6,166.2c-0.7,1.4-2.5,3.4-5.2,6.2
			c-2.8,2.8-5.7,5.2-8.7,7.3c-3,2.1-5.4,3.2-7,3.2c-2.3,0-3.5-1.7-3.5-5.2c0-3.3,1.5-7,4.6-11c3.1-4,6.7-7.5,10.8-10.3
			c4.1-2.9,7.4-4.3,9.9-4.3c2.2,0,4.1,0.9,5.5,2.6L462.6,166.2z"/>
		<path class="st4" d="M311.4,117.5c19.2,17,29.9,41.3,32.2,72.9c13.8-49.5,33.3-84.7,58.4-105.5"/>
		<g>
			<path class="st5" d="M358.5,94.3c10.2-19.6,3.3-37.2-20.6-52.8l-0.5-0.3l-0.2,0.6c-7,27.7-0.1,45.3,20.6,52.8l0.5,0.2L358.5,94.3
				z"/>
			<path class="st0" d="M370.6,92.1c14.7-6.5,18.8-19.7,12.3-39.5l-0.1-0.4l-0.4,0.3c-16.6,12.6-20.7,25.8-12.3,39.5l0.2,0.3
				L370.6,92.1z"/>
			<path class="st0" d="M351.4,99.7c-6.1-11-16.6-13.3-31.6-6.9l-0.3,0.1l0.2,0.3c11,12.1,21.5,14.4,31.6,6.9l0.2-0.2L351.4,99.7z"
				/>
		</g>
	</g>
</g>
</svg>
