<svg xmlns="http://www.w3.org/2000/svg" viewBox="0 0 525 252" id="el_rkstzGwAx"><style>@-webkit-keyframes kf_el_iW8ACOHha3_an_tRJOX-16x{0%{-webkit-transform: translate(262.6400146484375px, 126.41500854492188px) scale(1, 1) translate(-262.6400146484375px, -126.41500854492188px);transform: translate(262.6400146484375px, 126.41500854492188px) scale(1, 1) translate(-262.6400146484375px, -126.41500854492188px);}45.45%{-webkit-transform: translate(262.6400146484375px, 126.41500854492188px) scale(0.7, 0.7) translate(-262.6400146484375px, -126.41500854492188px);transform: translate(262.6400146484375px, 126.41500854492188px) scale(0.7, 0.7) translate(-262.6400146484375px, -126.41500854492188px);}90.91%{-webkit-transform: translate(262.6400146484375px, 126.41500854492188px) scale(1, 1) translate(-262.6400146484375px, -126.41500854492188px);transform: translate(262.6400146484375px, 126.41500854492188px) scale(1, 1) translate(-262.6400146484375px, -126.41500854492188px);}100%{-webkit-transform: translate(262.6400146484375px, 126.41500854492188px) scale(1, 1) translate(-262.6400146484375px, -126.41500854492188px);transform: translate(262.6400146484375px, 126.41500854492188px) scale(1, 1) translate(-262.6400146484375px, -126.41500854492188px);}}@keyframes kf_el_iW8ACOHha3_an_tRJOX-16x{0%{-webkit-transform: translate(262.6400146484375px, 126.41500854492188px) scale(1, 1) translate(-262.6400146484375px, -126.41500854492188px);transform: translate(262.6400146484375px, 126.41500854492188px) scale(1, 1) translate(-262.6400146484375px, -126.41500854492188px);}45.45%{-webkit-transform: translate(262.6400146484375px, 126.41500854492188px) scale(0.7, 0.7) translate(-262.6400146484375px, -126.41500854492188px);transform: translate(262.6400146484375px, 126.41500854492188px) scale(0.7, 0.7) translate(-262.6400146484375px, -126.41500854492188px);}90.91%{-webkit-transform: translate(262.6400146484375px, 126.41500854492188px) scale(1, 1) translate(-262.6400146484375px, -126.41500854492188px);transform: translate(262.6400146484375px, 126.41500854492188px) scale(1, 1) translate(-262.6400146484375px, -126.41500854492188px);}100%{-webkit-transform: translate(262.6400146484375px, 126.41500854492188px) scale(1, 1) translate(-262.6400146484375px, -126.41500854492188px);transform: translate(262.6400146484375px, 126.41500854492188px) scale(1, 1) translate(-262.6400146484375px, -126.41500854492188px);}}#el_rkstzGwAx *{-webkit-animation-duration: 1.1s;animation-duration: 1.1s;-webkit-animation-iteration-count: infinite;animation-iteration-count: infinite;-webkit-animation-timing-function: cubic-bezier(0, 0, 1, 1);animation-timing-function: cubic-bezier(0, 0, 1, 1);}#el_5rzjIpWn1H{fill: #fff;fill-rule: evenodd;}#el_Ks6Hb5YxE9{fill: #fff;fill-rule: evenodd;}#el_8TopuJ6tEJ{fill-rule: evenodd;fill: none;stroke: #f58220;stroke-miterlimit: 22.93;stroke-width: 14.17px;}#el_M4c1msWP2h{fill: #fff;fill-rule: evenodd;}#el_P68yQwEJ2b{fill: #fff;fill-rule: evenodd;}#el_XBfCr3zzcc{fill: #fff;fill-rule: evenodd;}#el_iW8ACOHha3_an_tRJOX-16x{-webkit-animation-fill-mode: backwards;animation-fill-mode: backwards;-webkit-transform: translate(262.6400146484375px, 126.41500854492188px) scale(1, 1) translate(-262.6400146484375px, -126.41500854492188px);transform: translate(262.6400146484375px, 126.41500854492188px) scale(1, 1) translate(-262.6400146484375px, -126.41500854492188px);-webkit-animation-name: kf_el_iW8ACOHha3_an_tRJOX-16x;animation-name: kf_el_iW8ACOHha3_an_tRJOX-16x;-webkit-animation-timing-function: cubic-bezier(0, 0, 0.58, 1);animation-timing-function: cubic-bezier(0, 0, 0.58, 1);}</style><defs/><title>logo_white</title><g id="el_iW8ACOHha3_an_tRJOX-16x" data-animator-group="true" data-animator-type="2"><g id="el_iW8ACOHha3" data-name="Слой 2"><g id="el_Fz1Mc5vJ6L" data-name="???? 1"><path d="M262.64,0C117.59,0,0,56.6,0,126.42S117.59,252.83,262.64,252.83s262.64-56.6,262.64-126.42S407.7,0,262.64,0Zm0,238.1c-128.15,0-232-50-232-111.69s103.89-111.69,232-111.69,232,50,232,111.69S390.8,238.1,262.64,238.1Z" id="el_5rzjIpWn1H"/><path d="M117.37,90.4l10.71,1.34c.14,3.89.38,9.9.69,18s.53,14.09.63,17.88.22,7.65.28,11.58.08,8.12.08,12.51l1.46.24a179.88,179.88,0,0,1,6.4-18.85,187.88,187.88,0,0,1,8.77-18.69,149.9,149.9,0,0,1,10.65-17,86.61,86.61,0,0,1,11.74-13.32l12,4.86a95,95,0,0,0-20.29,20.75,138,138,0,0,0-14.17,25.45q-6,13.85-15.47,40.05L120,174q-1.25-26.73-1.24-58.31l-1.56-.36q-6.59,24.24-14.9,37.78T86.79,171.52a38,38,0,0,1-13.55,6.11l-4.6-10.33A33.63,33.63,0,0,0,84,160.22,50.09,50.09,0,0,0,95.36,146a150.76,150.76,0,0,0,9.25-20q4.19-11.06,12.76-35.56Zm67.06,34.26a73.84,73.84,0,0,0-18.32,9.42,49.27,49.27,0,0,0-12.92,13,26.58,26.58,0,0,0-4.72,14.62q0,13.09,13.22,13.1c4.86,0,9.68-1.64,14.52-4.9a38.39,38.39,0,0,0,11.84-13.1,34.4,34.4,0,0,0,4.64-17.23,29.46,29.46,0,0,0-.47-5.47l-11,3c.16,1.92.24,3.36.24,4.25a31,31,0,0,1-2.63,12.92,25.57,25.57,0,0,1-6.56,9.23c-2.61,2.25-5.1,3.36-7.45,3.36a5.27,5.27,0,0,1-3.75-1.52c-1.07-1-1.6-2.63-1.6-4.92,0-2.69,1.11-6,3.34-9.92a41.63,41.63,0,0,1,9.5-11.12,39.78,39.78,0,0,1,14-7.75l-1.94-7Zm66.45,4.5-1.46,7.19-8.4,3.14q0,5.16-6.14,13.77a70.74,70.74,0,0,1-14.6,15.1q-8.44,6.47-14.84,6.48a10.4,10.4,0,0,1-7.69-3.52c-2.25-2.37-3.36-6-3.36-10.81a36.46,36.46,0,0,1,2-11.18,66,66,0,0,1,5.93-12.84,79.32,79.32,0,0,1,9-12.43l8.63,5.1a100.7,100.7,0,0,0-10.49,15.29Q205,152.56,205,159.17a9.05,9.05,0,0,0,.61,3.58q.61,1.4,2.92,1.4c1.68,0,4.19-1.46,7.53-4.35a68.92,68.92,0,0,0,9.23-9.84q4.22-5.5,4.72-8.4a21.57,21.57,0,0,1-6.44.73l-1.09-6.22a32.9,32.9,0,0,1,4.82-4.37,8.55,8.55,0,0,1,4.92-1.32c3.16,0,5.43,1.09,6.78,3.26l11.93-4.47Zm25.78-4.5a73.84,73.84,0,0,0-18.32,9.42,49.28,49.28,0,0,0-12.92,13,26.58,26.58,0,0,0-4.72,14.62q0,13.09,13.22,13.1c4.86,0,9.68-1.64,14.52-4.9a38.38,38.38,0,0,0,11.84-13.1,34.4,34.4,0,0,0,4.64-17.23,29.46,29.46,0,0,0-.47-5.47l-11,3c.16,1.92.24,3.36.24,4.25a31,31,0,0,1-2.63,12.92,25.58,25.58,0,0,1-6.56,9.23c-2.61,2.25-5.1,3.36-7.45,3.36a5.27,5.27,0,0,1-3.75-1.52c-1.07-1-1.6-2.63-1.6-4.92,0-2.69,1.11-6,3.34-9.92a41.63,41.63,0,0,1,9.5-11.12,39.78,39.78,0,0,1,14-7.75l-1.94-7Zm79.21,34.24L353,167.18a88.72,88.72,0,0,1-9.68,4.94c-4,1.8-7,2.71-8.91,2.71a6.17,6.17,0,0,1-5-2.17,7.62,7.62,0,0,1-1.84-5.12,15.88,15.88,0,0,1,1.36-5.37q1.37-3.43,5.71-11.52t14.05-24.9L357.2,130l-15.43,28a11.36,11.36,0,0,0-1.7,4.72c0,.91.57,1.38,1.7,1.38a11.8,11.8,0,0,0,4.15-1c1.64-.65,5-2.07,9.94-4.29Zm5-55.5H365c2.21,0,3.3.73,3.3,2.17a8.62,8.62,0,0,1-1.5,4.23A14.63,14.63,0,0,1,363,114a7.66,7.66,0,0,1-4.66,1.76c-2.19,0-3.44-.69-3.77-2V112a15.07,15.07,0,0,1,2.63-6.32c1.21-1.54,2.43-2.31,3.68-2.31Zm25.74,55.5c-1.7.89-3.26,1.7-4.7,2.43s-2.65,1.34-3.66,1.8a26.64,26.64,0,0,1-2.88,1.15,7.61,7.61,0,0,1-2.33.47c-1.24,0-1.84-.65-1.84-2,0-1.48,1-4.27,2.85-8.4s5.57-11.44,11-21.95q2.19-.24,8.5-.24a31.16,31.16,0,0,1,6.66,1.09l4.39-7.9a35,35,0,0,0-7.92-.73c-3.3,0-5.93,0-7.88.12a110.08,110.08,0,0,1,7-11.66L387.09,110c-1.92,3-4.86,8.26-8.87,15.67a53.86,53.86,0,0,0-9.35,1.22c-.69.1-1.21.18-1.6.26l-2.53.47-2,7.43a45.4,45.4,0,0,1,11.66-1.84q-5,8.93-9.74,19.34c-3.16,6.92-4.74,12-4.74,15.17a7.09,7.09,0,0,0,1.88,5.33,6.41,6.41,0,0,0,4.7,1.84q4.28,0,17.58-7.65l2.55-8.28Zm51.17-29.26,8.75,4.62-10.71,20.9c-1.84,3.58-2.77,6-2.77,7.29,0,1.46.53,2.21,1.56,2.21.85,0,2.65-.67,5.43-2s5.16-2.57,7.21-3.73l-2.55,8.28a56,56,0,0,1-8,5.06c-3.2,1.72-5.83,2.57-7.92,2.57a7,7,0,0,1-4.86-1.72A5.26,5.26,0,0,1,422,169a10,10,0,0,1,.41-2.55,25.9,25.9,0,0,1,1.05-3c.41-1,.65-1.58.71-1.76s.14-.26.3-.53a4.51,4.51,0,0,0,.43-1l-.51-.12a5.59,5.59,0,0,0-.83.79c-.3.36-.51.59-.61.69a46.94,46.94,0,0,1-5.37,5.14,49.7,49.7,0,0,1-8.26,5.61,18.37,18.37,0,0,1-8.61,2.47,9.21,9.21,0,0,1-6.72-3.08c-2-2.07-3-5.12-3-9.19,0-3,1.11-6.46,3.34-10.43a56.6,56.6,0,0,1,8.73-11.5,52.44,52.44,0,0,1,11.5-9.13q6.14-3.55,11.44-3.56,6.71,0,10.43,4.35l1.34-2.65Zm-10,19c-.71,1.38-2.47,3.44-5.24,6.18a67.45,67.45,0,0,1-8.73,7.29c-3,2.13-5.37,3.18-7,3.18q-3.52,0-3.52-5.22,0-5,4.64-11a49.24,49.24,0,0,1,10.77-10.35q6.17-4.31,9.86-4.31a6.74,6.74,0,0,1,5.47,2.55Z" id="el_Ks6Hb5YxE9"/><path d="M276.58,99.89q28.8,25.5,32.17,72.85Q329.51,98.47,367.1,67.22" id="el_8TopuJ6tEJ"/><path d="M323.68,76.69q15.25-29.36-20.62-52.83l-.52-.34-.15.6Q291.91,65.68,323,77l.45.16Z" id="el_M4c1msWP2h"/><path d="M335.75,74.49Q357.81,64.68,348,35l-.14-.43-.36.27q-24.89,18.93-12.28,39.52l.18.3Z" id="el_P68yQwEJ2b"/><path d="M316.53,82.11q-9.15-16.51-31.62-6.86l-.32.14.24.26q16.45,18.09,31.62,6.86l.22-.16Z" id="el_XBfCr3zzcc"/></g></g></g></svg>