<?xml version="1.0" encoding="utf-8"?>
<!-- Generator: Adobe Illustrator 21.0.2, SVG Export Plug-In . SVG Version: 6.00 Build 0)  -->
<svg version="1.1" id="Слой_1" xmlns="http://www.w3.org/2000/svg" xmlns:xlink="http://www.w3.org/1999/xlink" x="0px" y="0px"
	 viewBox="0 0 1896 733.1" style="enable-background:new 0 0 1896 733.1;" xml:space="preserve">
<style type="text/css">
	.st0{fill:#F4FAED;}
</style>
<g>
	<path class="st0" d="M1384,699.1c-5.7,0-11.3,0-17,0c-0.5-2.7-2.7-2-4.4-2c-4.7,0.1-9.2-1-13.8-1.6c-14.1-1.8-28.1-4.8-42.4-4.5
		c-12.6,0.3-25.3-0.4-37.8,1.1c-8.7,1-17.5,0.6-26.3,1.8c-4.1,0.6-8.2,0.4-12.4-0.3c-10.9-1.8-21.7-4.4-33-3.6
		c-14,1-27.8,3.7-41.9,4.5c-14.4,0.8-28.4-0.3-42.5-2c-13.4-1.7-26.7-4.9-40.4-4.5c-7.8,0.2-15.6,0.5-23.2,2.2
		c-9.9,2.2-20.4,0.3-29.9,3.9c-6.2,2.4-12.4,3.2-19,3c-5.8-0.2-11.7-0.1-17.5,0c-1.7,0-3.9-0.8-4.4,2c-17.3,0-34.7,0-52,0
		c-2.5-3.6-7-2.9-10.3-5c-3.6-2.3-7.5-4.7-11.9-4.9c-9-0.4-17.9-0.1-26.8,1.4c-10.4,1.7-21,3.9-31.5,3.4c-15.5-0.7-31-2.8-46.5-3.8
		c-19.8-1.2-39.4,1.2-58.9,4.3c-13,2.1-26.1,1.9-39.1,0c-7.2-1-14.3-2.7-21.6-3.4c-17.1-1.6-33.7,0.9-50,6.1c-0.9,0.3-1.2,1-1.4,1.9
		c-4.7,0-9.3,0-14,0c-0.5-2.7-2.7-1.9-4.4-2c-6.1-0.4-12.3-0.6-18.4-1.2c-15-1.5-29.9-3.4-45-3.8c-20.9-0.5-41.8,1.5-62.6,2.7
		c-14.3,0.8-28.7,1.8-43.3,0.7c-18.6-1.4-37.4-2.3-56.1-3.2c-18.8-0.8-37.6-0.6-56.3,0.9c-18.2,1.5-36.3,3.5-54.5,3.9
		c-1.7,0-3.9-0.8-4.4,2c-4.7,0-9.3,0-14,0c-0.2-1.4-1.1-1.9-2.4-2c-2.3-0.1-4.6,0.1-6.9-0.6c-8.2-2.4-16.4-3.5-25-3.7
		c-7.4-0.2-14.8-1-22.2-2.4c-11.4-2.1-23-4.5-34.4-0.4c-11.1,4-22.3,4-33.7,2c-14.5-2.6-29-3.2-43.5-0.1c-9.2,1.9-18.1,1.2-26.7-3
		c-2.6-1.3-5.5-1.3-8.3-0.7c-8.5,1.8-15.1,8.2-23.6,9.8c-0.1,0-0.2,0.6-0.3,0.9c-3.7,0-7.3,0-11,0c-0.3-0.6-0.6-1.6-0.9-1.6
		c-5.4,0-9.6-3.1-14.1-5.4C2,463,2,233.8,1.9,4.7C1.9,1.2,2.4,0,6.4,0c628.4,0.1,1256.8,0.1,1885.2,0c4,0,4.5,1.2,4.5,4.7
		c-0.1,228.8-0.1,457.6-0.1,686.4c-13.7,4.6-27.1,5.8-40.2-2.4c-4.7-2.9-10.8-4.2-15.9-2.2c-9.2,3.7-18.4,4.7-28.2,3.7
		c-16.9-1.9-33.4,4.2-50.5,2.2c-13.4-1.5-27.2-1.3-40.8-1.7c-7.2-0.2-14.5-0.6-21.8-1.3c-10-0.9-20.3-1.6-30.3,0.5
		c-13.9,2.8-28.1,4.3-41.9,1.8c-15.3-2.7-29.2,1.8-43.3,5.7c-0.4,0.1-0.6,1.1-1,1.6c-8.7,0-17.3,0-26,0c-0.4-2.4-2.3-1.9-3.9-2
		c-15.5-0.3-30.9-1-46.4-0.9c-11,0.1-21.9-0.9-32.9-1.2c-7.3-0.2-14.5-1.6-21.7-2.3c-9.8-1-19.6-0.9-29.3,0
		c-11.5,1.1-22.8,4-34.4,4.4C1385.9,697.2,1384.3,697,1384,699.1z"/>
</g>
</svg>
