<svg xmlns="http://www.w3.org/2000/svg" viewBox="0 0 1894.19 687.09"><defs><style>.cls-1{fill:#f4faed;}</style></defs><title>Ресурс 1</title><g id="Слой_2" data-name="Слой 2"><g id="Слой_1-2" data-name="Слой 1"><path class="cls-1" d="M1894.09,7q0,337.75.09,675.5c0,3.75-.84,4.59-4.59,4.59q-942.5-.15-1885,0c-3.75,0-4.6-.84-4.59-4.59Q.16,343.75.09,5c3.58-1.18,7.24-2.18,10-5h15c4.84,3.25,10.8,4,15.73,7.19,6.46,4.19,14.06,3.44,20.68,1.58A55.3,55.3,0,0,1,85.95,7.34c13.35,2.21,26.75,2.74,40-.12,11.32-2.45,22.3-2.34,33.3,1.13,10.69,3.37,21.53,3,32.4,1.13,12.38-2.1,24.67-3.89,37.39-4,9.65-.08,19.56-2.68,29.09-5.48h2c2.27,1,4.52,2,7.12,2a330.08,330.08,0,0,1,33.88.61c10.89.88,21.84,1.57,32.62,3.27,5.67.89,11.23,1.62,16.82.76a69.43,69.43,0,0,1,18.4-.11c5.63.62,11.38,1.4,16.91.07C397,3.92,408.35,3.62,419.52,3.78c17.45.25,34.9-.3,52.36,0C482,4,492.16,4.2,502.23,5c7.28.58,14.59.69,21.86,1.2,5.27.37,10.77,2.58,15.73,1.18,9.8-2.76,19.74-1.35,29.57-2.19,5-.43,9.75-1.88,14.67-2.25,8.73-.65,17.41-1.47,26-2.94h21c.8,1.17,2.07,1.58,3.31,2.1C648,7.86,662.34,8.23,676.57,7.33c10.87-.69,21.51-3.47,32.58-3.88,9.31-.35,18.54.26,27.8.26,13.76,0,26.89,5.33,40.85,5,10.77-.26,21.54-.33,32.25-1.46C822,6,833.9,5.59,845.84,5.09c15-.62,29.76,2.54,44.59,4.19,11.91,1.33,21.24-3.6,30.67-9.29h17c10,1.12,20,2,30,0h6q5.5,4.32,11,0h10A4.39,4.39,0,0,0,999,1.84c11.39-1.45,21.7,4.48,32.87,4.66,9,.15,17.73,2.91,26.56,3.77,14,1.37,28.16-.51,42.08-3.08,14.45-2.67,29-3.29,43.69-3.13,3.65,0,7.36,1.15,10.91.74,8.58-1,16.88.61,25.29,1.54s16.81,3.85,25.22,1.71c21-5.34,42.32-2.5,63.35-1.27,10.92.64,21.83-.07,32.72,1a68.49,68.49,0,0,0,15.36-.7c11.54-1.54,23-3.49,34.53-5.23,1.67-.25,3.33-.37,4.48-1.83h2q3.5,3.69,7,0h15c1.33,1.78,2.67,1.79,4,0h6c4.15,3,9.17,2.44,13.82,3.18,16.69,2.66,33.38,5.12,50.35,1.82a80.9,80.9,0,0,1,16.83-1.26c12,.22,23.83-1.15,35.75-1.39,7.86.82,15.71,1.26,23.57,0L1532.09,0h2c9,3.36,18,3,27,0h24c9.09,5.26,18.64,8.32,29.39,7.42,13.23-1.12,26.66-2.32,39.77-.65,16.22,2.07,32.3,3.94,48.63,2.13,6.59.2,13.17.36,19.72-.64l5.29-.88c5.91.81,11.82,1.28,17.71-.11l5.05-1c6.92,1.46,13.85.77,20.77,0a65.58,65.58,0,0,1,13.89.13c8.68,1,17.28,2.62,26.22,1.55,7.49-.89,15.36-1.29,22.54,2.26a19.48,19.48,0,0,0,19.11-.67C1866.51,2,1880.13,2.61,1894.09,7Z"/></g></g></svg>